<?xml version="1.0" encoding="iso-8859-1"?>
<!-- Uploaded to: SVG Repo, www.svgrepo.com, Generator: SVG Repo Mixer Tools -->
<svg height="800px" width="800px" version="1.1" id="Layer_1" xmlns="http://www.w3.org/2000/svg" xmlns:xlink="http://www.w3.org/1999/xlink" 
	 viewBox="0 0 512 512" xml:space="preserve">
<circle style="fill:#F4B2B0;" cx="221.32" cy="381.469" r="59.943"/>
<g>
	<path style="fill:#B3404A;" d="M221.326,455.991c-41.09,0-74.52-33.43-74.52-74.52s33.43-74.52,74.52-74.52
		s74.52,33.43,74.52,74.52S262.416,455.991,221.326,455.991z M221.326,336.107c-25.014,0-45.364,20.35-45.364,45.364
		s20.35,45.364,45.364,45.364s45.364-20.35,45.364-45.364S246.339,336.107,221.326,336.107z"/>
	<path style="fill:#B3404A;" d="M221.361,512c-1.061,0-2.121-0.012-3.187-0.038c-70.33-1.662-127.472-60.279-127.377-130.668
		c0.063-46.595,24.418-88.796,64.149-112.209V58.856C154.948,26.403,181.349,0,213.804,0h15.046
		c32.453,0,58.856,26.403,58.856,58.856c0,8.051-6.526,14.578-14.578,14.578s-14.578-6.526-14.578-14.578
		c0-16.377-13.324-29.701-29.701-29.701h-15.046c-16.377,0-29.701,13.324-29.701,29.701V277.74c0,5.521-3.118,10.567-8.054,13.037
		c-34.548,17.286-56.042,51.985-56.093,90.556c-0.073,54.666,44.297,100.191,98.911,101.482c27.549,0.63,53.593-9.582,73.285-28.814
		c19.7-19.24,30.549-44.998,30.549-72.528c0-16.546-4.073-32.954-11.779-47.455c-3.779-7.11-1.077-15.936,6.032-19.713
		c7.111-3.777,15.936-1.077,19.713,6.032c9.936,18.697,15.189,39.838,15.189,61.136c0,35.449-13.97,68.614-39.333,93.388
		C287.924,498.88,255.657,511.999,221.361,512z"/>
	<path style="fill:#B3404A;" d="M221.326,283.228c-8.051,0-14.578-6.526-14.578-14.578V151.01c0-8.051,6.526-14.578,14.578-14.578
		c8.051,0,14.578,6.526,14.578,14.578v117.64C235.903,276.702,229.377,283.228,221.326,283.228z"/>
	<path style="fill:#B3404A;" d="M406.627,194.304H287.704v-30.613h64.823c8.051,0,14.578-6.526,14.578-14.578
		s-6.526-14.578-14.578-14.578h-77.941c-0.249,0-0.491,0.025-0.736,0.038c-0.241-0.012-0.478-0.036-0.723-0.036
		c-8.051,0-14.578,6.526-14.578,14.578v119.537c0,8.051,6.526,14.578,14.578,14.578c0.246,0,0.487-0.025,0.729-0.036
		c0.243,0.012,0.484,0.036,0.729,0.036h77.941c8.051,0,14.578-6.526,14.578-14.578s-6.526-14.578-14.578-14.578h-64.823v-30.613
		h118.923c8.051,0,14.578-6.526,14.578-14.578S414.678,194.304,406.627,194.304z"/>
	<path style="fill:#B3404A;" d="M340.682,23.012c-8.787,0-13.875,4.933-13.875,15.416v40.854c0,10.483,5.088,15.416,14.03,15.416
		c12.334,0,13.104-9.404,13.566-15.416c0.464-5.704,5.704-7.247,11.871-7.247c8.325,0,12.18,2.159,12.18,11.408
		c0,20.504-16.649,32.22-38.695,32.22c-20.194,0-36.998-9.866-36.998-36.383V38.428c0-26.515,16.804-36.383,36.998-36.383
		c22.046,0,38.695,11.099,38.695,30.679c0,9.25-3.854,11.408-12.025,11.408c-6.474,0-11.716-1.697-12.025-7.247
		C354.249,32.878,353.787,23.012,340.682,23.012z"/>
</g>
</svg>